<svg width="80" height="48" viewBox="0 0 80 48" fill="none" xmlns="http://www.w3.org/2000/svg">
<rect width="80" height="48" rx="10.6667" fill="white"/>
<path d="M38.5222 18.0448V22.3073H41.1451C41.7681 22.3073 42.2861 22.0963 42.6937 21.6744C42.8954 21.4804 43.0551 21.2472 43.163 20.9891C43.2713 20.731 43.3252 20.4534 43.3217 20.1736C43.3217 19.6079 43.1154 19.114 42.6983 18.6921C42.5005 18.48 42.2593 18.3126 41.9913 18.201C41.7237 18.0894 41.4349 18.0361 41.1451 18.0448H38.5222ZM38.5222 23.8032V28.7465H36.9544V16.5441H41.1113C42.1662 16.5441 43.0629 16.8989 43.7963 17.5989C44.157 17.9229 44.444 18.3203 44.6383 18.7644C44.8326 19.2085 44.9299 19.6889 44.9232 20.1736C44.9232 21.2093 44.5491 22.0723 43.8012 22.7627C43.4441 23.1054 43.0224 23.3737 42.5604 23.5523C42.0989 23.7309 41.6063 23.8162 41.1113 23.8032H38.5222ZM46.5053 26.1909C46.5053 26.5985 46.6827 26.9389 47.0279 27.2122C47.3731 27.4855 47.7807 27.6246 48.2458 27.6246C48.9066 27.6228 49.5395 27.359 50.0056 26.891C50.2503 26.675 50.446 26.4093 50.58 26.1117C50.714 25.8141 50.7827 25.4913 50.7824 25.1649C50.2933 24.7813 49.6125 24.5895 48.7398 24.5895C48.1019 24.5895 47.5748 24.743 47.1478 25.0498C46.7166 25.3567 46.5053 25.7355 46.5053 26.1909ZM48.5335 20.1257C49.6939 20.1257 50.605 20.4325 51.276 21.051C51.9474 21.6744 52.2831 22.523 52.2831 23.6018V28.7465H50.7824V27.5862H50.715C50.4453 28.0295 50.0645 28.3948 49.6107 28.6462C49.1566 28.8976 48.6449 29.0264 48.1259 29.0198C47.2821 29.0474 46.4588 28.7564 45.8199 28.2047C45.5219 27.9542 45.2843 27.6405 45.1231 27.2862C44.9624 26.932 44.8823 26.5464 44.8897 26.1574C44.8897 25.2944 45.2155 24.6087 45.8678 24.0957C46.5198 23.5827 47.3925 23.3285 48.4856 23.3285C49.4111 23.3285 50.178 23.4963 50.7824 23.8368V23.482C50.7824 22.9354 50.5666 22.4751 50.135 22.0915C49.7179 21.7175 49.1759 21.5162 48.6199 21.521C48.2077 21.5115 47.8001 21.6085 47.4366 21.8025C47.073 21.9965 46.7656 22.281 46.5438 22.6285L45.163 21.7607C45.9204 20.6675 47.0473 20.1257 48.5335 20.1257ZM60.8798 20.3942L55.6536 32.4288H54.033L55.9748 28.2191L52.5373 20.3942H54.2393L56.7276 26.3971H56.7611L59.1778 20.3942H60.8798Z" fill="black"/>
<path d="M32.1892 22.739C32.1892 22.2451 32.1508 21.7704 32.0693 21.3149H25.4622V24.0143H29.25C29.1723 24.4453 29.0082 24.856 28.7676 25.2219C28.527 25.5877 28.2149 25.9011 27.85 26.1432V27.898H30.1035C31.4316 26.6802 32.1892 24.8774 32.1892 22.739Z" fill="#4285F4"/>
<path d="M25.4622 29.5907C27.356 29.5907 28.9479 28.9674 30.1082 27.8981L27.8499 26.1433C27.2218 26.57 26.4115 26.8146 25.4622 26.8146C24.587 26.8036 23.7372 26.5189 23.032 26.0003C22.3269 25.4818 21.8018 24.7555 21.5305 23.9233H19.2051V25.7262C19.7873 26.887 20.6808 27.8631 21.7857 28.5455C22.8906 29.228 24.1635 29.5898 25.4622 29.5907Z" fill="#34A853"/>
<path d="M21.5255 23.9234C21.2331 23.0522 21.2331 22.1095 21.5255 21.2384V19.4308H19.2048C18.7106 20.4073 18.4531 21.4864 18.4531 22.5809C18.4531 23.6754 18.7106 24.7545 19.2048 25.731L21.5302 23.9234H21.5255Z" fill="#FABB05"/>
<path d="M25.4622 18.3422C26.4978 18.3422 27.4232 18.7018 28.1472 19.3971L30.1513 17.3977C28.8835 16.205 27.2027 15.5502 25.4622 15.5709C24.164 15.5713 22.8914 15.9324 21.7866 16.614C20.6817 17.2955 19.788 18.2707 19.2051 19.4306L21.5305 21.2382C21.801 20.4052 22.3257 19.6778 23.0309 19.1584C23.7361 18.639 24.5864 18.3535 25.4622 18.3422Z" fill="#E94235"/>
</svg>
