<svg width="80" height="48" viewBox="0 0 80 48" fill="none" xmlns="http://www.w3.org/2000/svg">
<rect width="80" height="48" rx="10.6667" fill="white"/>
<path d="M44.0077 13.0684H35.3249V28.644H44.0077V13.0684Z" fill="#FF5F00"/>
<path d="M35.876 20.8584C35.8748 19.3585 36.2155 17.8781 36.872 16.5291C37.5287 15.1802 38.4841 13.9979 39.6661 13.0719C38.2022 11.9235 36.4441 11.2094 34.5928 11.0112C32.7416 10.813 30.8719 11.1386 29.1972 11.9509C27.5226 12.7633 26.1107 14.0296 25.1229 15.6049C24.1352 17.1803 23.6113 19.0012 23.6113 20.8597C23.6113 22.7182 24.1352 24.5392 25.1229 26.1145C26.1107 27.69 27.5226 28.9562 29.1972 29.7685C30.8719 30.5808 32.7416 30.9064 34.5928 30.7082C36.4441 30.51 38.2022 29.7959 39.6661 28.6475C38.4838 27.7212 37.528 26.5385 36.8715 25.1892C36.2148 23.8396 35.8743 22.3586 35.876 20.8584Z" fill="#EB001B"/>
<path d="M55.7231 20.8607C55.7229 22.7193 55.1991 24.5403 54.211 26.1158C53.2231 27.6913 51.811 28.9574 50.1362 29.7696C48.4614 30.5819 46.5913 30.9074 44.7399 30.7088C42.8885 30.5103 41.1305 29.7958 39.6667 28.6472C40.8482 27.7203 41.8034 26.5378 42.4603 25.1886C43.1169 23.8396 43.4582 22.3592 43.4582 20.8593C43.4582 19.3595 43.1169 17.8791 42.4603 16.53C41.8034 15.1809 40.8482 13.9984 39.6667 13.0715C41.1307 11.9227 42.889 11.2082 44.7406 11.0097C46.5923 10.8113 48.4625 11.1371 50.1374 11.9496C51.8123 12.762 53.2244 14.0287 54.2122 15.6045C55.1999 17.1803 55.7234 19.0018 55.7231 20.8607Z" fill="#F79E1B"/>
<path d="M28.2523 36.9711V35.1399C28.2523 34.4489 27.8108 33.9838 27.1003 33.9777C26.8979 33.9646 26.6957 34.006 26.5148 34.0975C26.3339 34.1889 26.1809 34.3272 26.0717 34.4977C25.9722 34.3322 25.8299 34.1966 25.6596 34.1051C25.4893 34.0135 25.2975 33.9695 25.1043 33.9777C24.9361 33.9696 24.7686 34.0054 24.6184 34.0816C24.4683 34.1578 24.3407 34.2718 24.2482 34.4123V34.0461H23.611V36.9711H24.2543V35.3511C24.2543 34.8432 24.5356 34.5747 24.971 34.5747C25.4064 34.5747 25.6082 34.8494 25.6082 35.345V36.9711H26.2478V35.3511C26.2478 34.8432 26.5413 34.5747 26.9645 34.5747C27.3877 34.5747 27.6078 34.8494 27.6078 35.345V36.9711H28.2523ZM37.7711 34.0485H36.7303V33.1622H36.087V34.0485H35.4926V34.6296H36.087V35.9615C36.087 36.6402 36.35 37.0443 37.1033 37.0443C37.3847 37.0452 37.6606 36.9669 37.8995 36.8185L37.716 36.274C37.5451 36.3756 37.3511 36.4323 37.1522 36.4388C36.8343 36.4388 36.7291 36.2435 36.7291 35.9505V34.6296H37.7699L37.7711 34.0485ZM43.205 33.9753C43.0496 33.9707 42.8959 34.0082 42.7601 34.0836C42.6243 34.159 42.5114 34.2696 42.4332 34.4038V34.0485H41.8022V36.9711H42.4393V35.3328C42.4393 34.8445 42.6473 34.5808 43.0643 34.5808C43.2008 34.5788 43.3362 34.6037 43.463 34.654L43.6587 34.0546C43.5131 34.0026 43.3596 33.9758 43.205 33.9753ZM34.9899 34.2804C34.6292 34.0665 34.2144 33.9606 33.7951 33.9753C33.0539 33.9753 32.572 34.3305 32.572 34.9104C32.572 35.3877 32.9267 35.6807 33.5823 35.7723L33.8819 35.815C34.2305 35.8638 34.3968 35.9553 34.3968 36.1202C34.3968 36.346 34.1644 36.4754 33.729 36.4754C33.3777 36.4866 33.033 36.379 32.7506 36.1702L32.4607 36.6646C32.8318 36.9236 33.2764 37.0567 33.729 37.0443C34.5741 37.0443 35.0645 36.6463 35.0645 36.0909C35.0645 35.5769 34.6781 35.3084 34.0421 35.2168L33.7425 35.1741C33.4673 35.1375 33.2459 35.0825 33.2459 34.8872C33.2459 34.6736 33.4539 34.5453 33.8036 34.5453C34.1241 34.5501 34.4381 34.6362 34.716 34.7956L34.9899 34.2804ZM52.0535 33.9753C51.8982 33.9707 51.7444 34.0082 51.6086 34.0836C51.4728 34.159 51.3599 34.2696 51.2818 34.4038V34.0485H50.6507V36.9711H51.2879V35.3328C51.2879 34.8445 51.4958 34.5808 51.9129 34.5808C52.0493 34.5788 52.1848 34.6037 52.3116 34.654L52.5072 34.0546C52.3616 34.0026 52.2082 33.9758 52.0535 33.9753ZM43.8483 35.5098C43.8483 36.396 44.4671 37.0443 45.41 37.0443C45.7924 37.0632 46.168 36.9387 46.4631 36.6952L46.1573 36.1812C45.937 36.3487 45.6686 36.4407 45.3917 36.4437C44.8829 36.4437 44.5099 36.0701 44.5099 35.5086C44.5099 34.947 44.8841 34.5796 45.3917 34.5734C45.6686 34.5764 45.937 34.6685 46.1573 34.8359L46.4631 34.322C46.168 34.0785 45.7924 33.9539 45.41 33.9728C44.4671 33.9728 43.8483 34.621 43.8483 35.5074V35.5098ZM49.8141 35.5098V34.0449H49.177V34.4001C49.0683 34.2602 48.9277 34.1482 48.7668 34.0737C48.6059 33.9992 48.4296 33.9642 48.2524 33.9716C47.4317 33.9716 46.7847 34.6137 46.7847 35.5061C46.7847 36.3985 47.4281 37.0407 48.2524 37.0407C48.4296 37.0481 48.6059 37.0131 48.7668 36.9385C48.9277 36.864 49.0683 36.7521 49.177 36.6121V36.9662H49.8141V35.5098ZM47.4439 35.5098C47.4439 34.9959 47.7803 34.5747 48.3319 34.5747C48.859 34.5747 49.2137 34.9787 49.2137 35.5098C49.2137 36.0408 48.859 36.4449 48.3319 36.4449C47.7803 36.4449 47.4439 36.0225 47.4439 35.5098ZM39.756 33.9753C38.8999 33.9753 38.2982 34.5991 38.2982 35.5098C38.2982 36.4388 38.9232 37.0443 39.7988 37.0443C40.2361 37.0596 40.6637 36.9136 40.9999 36.6341L40.688 36.1629C40.4447 36.3571 40.1434 36.4646 39.8319 36.4681C39.4209 36.4681 39.0479 36.2789 38.9562 35.7527H41.1307C41.1368 35.6734 41.143 35.594 41.143 35.5086C41.143 34.5979 40.573 33.9741 39.7524 33.9741L39.756 33.9753ZM39.7438 34.5441C40.1547 34.5441 40.4177 34.8005 40.4849 35.2534H38.9672C39.0345 34.831 39.2913 34.5441 39.745 34.5441H39.7438ZM55.7228 35.5098V32.8741H55.0854V34.4025C54.9767 34.2626 54.8361 34.1507 54.6752 34.0761C54.5144 34.0016 54.338 33.9666 54.1608 33.9741C53.3401 33.9741 52.6931 34.6162 52.6931 35.5086C52.6931 36.4009 53.3365 37.0431 54.1608 37.0431C54.338 37.0505 54.5144 37.0155 54.6752 36.941C54.8361 36.8664 54.9767 36.7545 55.0854 36.6146V36.9686H55.7228V35.5098ZM53.3548 35.5098C53.3548 34.9959 53.6911 34.5747 54.2427 34.5747C54.7698 34.5747 55.1245 34.9787 55.1245 35.5098C55.1245 36.0408 54.7698 36.4449 54.2427 36.4449C53.6911 36.4449 53.3548 36.0225 53.3548 35.5098ZM31.8419 35.5098V34.0449H31.2047V34.4001C31.096 34.2614 30.9559 34.1505 30.7957 34.0765C30.6356 34.0027 30.4601 33.9679 30.2838 33.9753C29.4631 33.9753 28.8162 34.6174 28.8162 35.5098C28.8162 36.4022 29.4595 37.0443 30.2838 37.0443C30.461 37.0518 30.6374 37.0168 30.7982 36.9422C30.9591 36.8676 31.0997 36.7557 31.2084 36.6158V36.9698H31.8456L31.8419 35.5098ZM29.4717 35.5098C29.4717 34.9959 29.808 34.5747 30.3596 34.5747C30.8867 34.5747 31.2414 34.9787 31.2414 35.5098C31.2414 36.0408 30.8867 36.4449 30.3596 36.4449C29.808 36.4449 29.4717 36.0237 29.4717 35.5098Z" fill="black"/>
</svg>
