<svg width="24" height="24" viewBox="0 0 24 24" fill="none" xmlns="http://www.w3.org/2000/svg">
<path fill-rule="evenodd" clip-rule="evenodd" d="M3.29351 11.2503C4.99386 8.19177 8.25638 6.125 12.0006 6.125C15.7448 6.125 19.0074 8.19177 20.7077 11.2503C20.9669 11.7164 20.9669 12.2837 20.7077 12.7499C19.0074 15.8083 15.7448 17.8751 12.0006 17.8751C8.25638 17.8751 4.99386 15.8083 3.29351 12.7499C3.03433 12.2837 3.03433 11.7164 3.29351 11.2503ZM12.0006 4.625C7.69008 4.625 3.93674 7.00622 1.98249 10.5214C1.47133 11.4408 1.47133 12.5593 1.98249 13.4787C3.93674 16.9939 7.69008 19.3751 12.0006 19.3751C16.3111 19.3751 20.0645 16.9939 22.0187 13.4787C22.5299 12.5593 22.5299 11.4408 22.0187 10.5214C20.0645 7.00622 16.3111 4.625 12.0006 4.625ZM8.8135 12.0001C8.8135 10.241 10.2393 8.81519 11.9981 8.81519C13.7568 8.81519 15.1826 10.241 15.1826 12.0001C15.1826 13.7591 13.7568 15.1849 11.9981 15.1849C10.2393 15.1849 8.8135 13.7591 8.8135 12.0001ZM11.9981 7.31519C9.4108 7.31519 7.3135 9.41273 7.3135 12.0001C7.3135 14.5874 9.4108 16.6849 11.9981 16.6849C14.5853 16.6849 16.6826 14.5874 16.6826 12.0001C16.6826 9.41273 14.5853 7.31519 11.9981 7.31519Z" fill="white"/>
</svg>
