<svg width="25" height="24" viewBox="0 0 25 24" fill="none" xmlns="http://www.w3.org/2000/svg">
<path fill-rule="evenodd" clip-rule="evenodd" d="M4.34964 4.72266C4.02103 4.47049 3.55022 4.53247 3.29806 4.86109C3.0459 5.1897 3.10787 5.66051 3.43649 5.91267L5.24304 7.29892C5.24261 7.29928 5.24218 7.29964 5.24176 7.29999L6.46509 8.23871C6.46553 8.23836 6.46597 8.23802 6.46641 8.23767L8.475 9.77896C8.47474 9.77944 8.47448 9.77992 8.47422 9.78041L9.68752 10.7114C9.68775 10.7109 9.68797 10.7104 9.6882 10.7099L14.6002 14.4791C14.5997 14.4794 14.5993 14.4798 14.5989 14.4801L15.812 15.411C15.8124 15.4106 15.8128 15.4102 15.8132 15.4099L17.4118 16.6365C17.4112 16.6368 17.4107 16.6371 17.4102 16.6374L18.6925 17.6214C18.693 17.6211 18.6935 17.6208 18.694 17.6205L20.8534 19.2775C21.182 19.5296 21.6528 19.4676 21.905 19.139C22.1571 18.8104 22.0952 18.3396 21.7665 18.0874L19.9573 16.6991C21.0286 15.8002 21.9328 14.7089 22.6166 13.4787C23.1277 12.5593 23.1277 11.4409 22.6166 10.5215C20.6625 7.0063 16.9093 4.62504 12.5989 4.62504C10.3598 4.62504 8.27104 5.2676 6.50673 6.37788L4.34964 4.72266ZM7.78914 7.36194L9.38895 8.58954C10.2275 7.79944 11.3575 7.31522 12.6006 7.31522C15.1879 7.31522 17.2852 9.41277 17.2852 12.0001C17.2852 12.8034 17.083 13.5595 16.7268 14.2202L18.734 15.7604C19.779 14.9415 20.6562 13.918 21.3056 12.7499C21.5648 12.2837 21.5648 11.7165 21.3056 11.2503C19.6053 8.19182 16.3429 6.12504 12.5989 6.12504C10.8547 6.12504 9.21503 6.57357 7.78914 7.36194ZM15.5135 13.2892C15.6882 12.8951 15.7852 12.4589 15.7852 12.0001C15.7852 10.2411 14.3594 8.81522 12.6006 8.81522C11.8437 8.81522 11.1485 9.07931 10.602 9.5204L15.5135 13.2892ZM2.58109 10.5215C3.01754 9.7364 3.54374 9.00786 4.14585 8.34977L5.34084 9.26675C4.78056 9.86345 4.29294 10.5293 3.89212 11.2503C3.63296 11.7165 3.63296 12.2837 3.89212 12.7499C5.5924 15.8084 8.85479 17.8752 12.5989 17.8752C13.7377 17.8752 14.8319 17.684 15.8512 17.3318L17.2386 18.3964C15.8204 19.0256 14.2505 19.3752 12.5989 19.3752C8.28846 19.3752 4.53525 16.9939 2.58109 13.4787C2.06998 12.5593 2.06998 11.4409 2.58109 10.5215ZM7.91606 12.0001C7.91606 11.7568 7.93461 11.5178 7.97037 11.2845L9.44275 12.4143C9.64577 13.9776 10.9823 15.185 12.6006 15.185C12.7421 15.185 12.8815 15.1758 13.0181 15.1579L14.4908 16.288C13.9127 16.5432 13.2732 16.685 12.6006 16.685C10.0134 16.685 7.91606 14.5874 7.91606 12.0001Z" fill="white"/>
</svg>
