<svg width="80" height="48" viewBox="0 0 80 48" fill="none" xmlns="http://www.w3.org/2000/svg">
<rect width="80" height="48" rx="10.6667" fill="white"/>
<path d="M29.1659 17.7234C29.6569 17.1476 29.9006 16.4011 29.8437 15.6465C29.1878 15.6727 28.3964 16.0837 27.9285 16.6346C27.5044 17.12 27.1415 17.9026 27.2421 18.6459C27.9679 18.7028 28.7156 18.2743 29.1659 17.7277V17.7234ZM31.0504 22.5592C31.0373 20.9108 32.3971 20.1194 32.4583 20.0801C32.1875 19.6973 31.8319 19.3821 31.4194 19.1591C31.0069 18.9362 30.5484 18.8114 30.0798 18.7946C29.0654 18.694 28.0991 19.3892 27.5875 19.3892C27.0759 19.3892 26.2845 18.8077 25.4407 18.8252C24.8889 18.8401 24.3504 18.9984 23.8782 19.2843C23.406 19.5702 23.0163 19.974 22.7473 20.4561C21.6061 22.4543 22.4587 25.3969 23.578 27.0147C24.1246 27.8017 24.7717 28.6937 25.6331 28.6587C26.4551 28.6281 26.7655 28.1252 27.7624 28.1252C28.7593 28.1252 29.0391 28.6587 29.9049 28.6456C30.7925 28.6237 31.3565 27.8367 31.8987 27.0409C32.5239 26.1271 32.7863 25.2395 32.7994 25.1957C32.7819 25.1826 31.0723 24.5311 31.0504 22.5592ZM41.6142 17.7234C41.2519 17.3854 40.8187 17.1329 40.3462 16.9844C39.7616 16.8045 39.1518 16.7189 38.5403 16.7309C38.0977 16.7293 37.6554 16.7527 37.2155 16.8008C36.8482 16.8445 36.4809 16.8926 36.1136 16.9538L36.0087 16.9757V28.5625H37.0668V23.6785C37.421 23.7397 37.832 23.7704 38.2823 23.7704C38.8813 23.7704 39.4411 23.696 39.9438 23.5474C40.4343 23.4084 40.8911 23.1703 41.2862 22.8478C41.6646 22.5314 41.969 22.1359 42.178 21.6891C42.3968 21.23 42.5017 20.6878 42.5017 20.0801C42.5099 19.622 42.4312 19.1665 42.27 18.7378C42.1208 18.3595 41.8979 18.0147 41.6142 17.7234ZM40.6389 22.1482C40.0968 22.6029 39.3274 22.8347 38.3523 22.8347C38.0856 22.8347 37.8276 22.8216 37.6002 22.7997C37.421 22.7866 37.2417 22.756 37.0668 22.7123V17.7846C37.5426 17.6977 38.0261 17.6596 38.5097 17.6709C38.9163 17.6709 39.323 17.7234 39.7165 17.8283C40.0531 17.9201 40.3679 18.0775 40.6433 18.283C40.9018 18.4833 41.1061 18.7448 41.238 19.0438C41.3781 19.3586 41.448 19.7303 41.448 20.15C41.448 21.0245 41.1725 21.6978 40.6389 22.1482ZM48.824 27.4738C48.8139 27.1459 48.8095 26.818 48.8111 26.49V23.2763C48.8111 22.8915 48.7674 22.5024 48.6975 22.1176C48.6251 21.732 48.4765 21.3648 48.2602 21.0376C48.031 20.7039 47.7231 20.4321 47.3636 20.2462C46.9109 20.0262 46.411 19.921 45.9076 19.9402C45.4792 19.9402 45.0595 19.997 44.6616 20.1063C44.2464 20.2287 43.8528 20.4124 43.4943 20.6616L43.4068 20.7228L43.7697 21.5579L43.8966 21.4705C44.4674 21.0855 45.1404 20.8799 45.8289 20.8802C46.2662 20.8802 46.6159 20.9589 46.8697 21.1163C47.1275 21.2781 47.3158 21.4749 47.4382 21.7022C47.5692 21.9427 47.6567 22.1963 47.6916 22.4586C47.7354 22.7341 47.753 22.9746 47.753 23.1845V23.2806C46.1831 23.2719 44.9591 23.5343 44.1456 24.0589C43.7445 24.297 43.4143 24.6376 43.1883 25.0456C42.9626 25.4536 42.8492 25.9144 42.8602 26.3807C42.8602 26.6692 42.9128 26.9578 43.0132 27.242C43.1174 27.5352 43.2824 27.8031 43.4971 28.0283C43.7118 28.2536 43.9715 28.4311 44.2593 28.5494C44.5741 28.6805 44.9459 28.7549 45.3567 28.7549C45.8223 28.7636 46.2838 28.6666 46.7063 28.4712C47.1291 28.2758 47.5018 27.9871 47.7965 27.6268H47.8402L47.9366 28.5669H48.9553L48.9292 28.4138C48.8722 28.1077 48.8372 27.7929 48.8284 27.4781L48.824 27.4738ZM47.753 25.8254C47.7376 26.1938 47.6111 26.5489 47.3901 26.8441C47.1234 27.2377 46.734 27.5306 46.2838 27.6792C46.0084 27.7711 45.7241 27.8148 45.4354 27.8104C45.243 27.8104 45.0551 27.7798 44.876 27.7142C44.6975 27.6514 44.5344 27.5515 44.3971 27.4211C44.2599 27.2907 44.1519 27.1329 44.0801 26.9578C43.9926 26.7654 43.9489 26.5293 43.9489 26.2495C43.9489 25.7991 44.0757 25.4275 44.3162 25.1608C44.5731 24.875 44.8958 24.656 45.2563 24.5224C45.6674 24.3694 46.0959 24.2688 46.5331 24.2295C46.9396 24.1901 47.3463 24.1726 47.753 24.177V25.8254ZM55.9992 20.1282L54.0228 25.4975C53.8443 25.9642 53.6809 26.4367 53.5333 26.9141H53.4939L53.345 26.4463C53.2402 26.1315 53.1309 25.8254 53.0173 25.5281L50.9096 20.1282H49.7773L52.7985 27.8935C52.8772 28.0815 52.8904 28.1646 52.8904 28.1996C52.8904 28.2127 52.8904 28.2739 52.7985 28.51C52.6326 28.9298 52.4182 29.332 52.156 29.7037C51.9155 30.0316 51.6923 30.2983 51.4999 30.4951C51.2682 30.7268 51.0277 30.9148 50.7872 31.0547C50.5426 31.199 50.3194 31.3171 50.1182 31.4045L50.0046 31.457L50.3719 32.3533L50.49 32.3096C50.5863 32.2703 50.7655 32.1916 51.0409 32.056C51.3164 31.9248 51.618 31.7062 51.946 31.4133C52.2347 31.1597 52.4881 30.8711 52.7069 30.5563C52.9298 30.2371 53.1527 29.8611 53.3715 29.4457C53.5899 29.0259 53.8087 28.5537 54.014 28.0334C54.2284 27.5131 54.4513 26.9316 54.6874 26.3063L57.1272 20.1282H55.9948H55.9992Z" fill="black"/>
</svg>
