<svg width="80" height="48" viewBox="0 0 80 48" fill="none" xmlns="http://www.w3.org/2000/svg">
<rect width="80" height="48" rx="10.6667" fill="white"/>
<path fill-rule="evenodd" clip-rule="evenodd" d="M19.6579 18.3548V18.309L19.7257 18.0043H25.3213C26.0338 18.0043 26.6756 18.4529 26.8377 19.2298L28.222 26.1878L31.6443 18.0043H35.0983L29.7707 30.028H26.2951L23.6733 20.4323C23.5142 19.8415 23.376 19.6246 22.8922 19.3761C22.1038 18.9712 20.804 18.5914 19.6579 18.3548ZM40.6928 21.7584C40.7108 19.4187 42.9986 17.7843 46.2485 17.7843C47.5158 17.7843 48.5334 18.0457 49.325 18.3172L48.7472 20.8665C47.2755 20.226 45.9761 20.2709 45.5054 20.3291C44.555 20.4464 44.1215 20.9048 44.1106 21.336C44.079 22.7538 48.7322 22.9289 48.7177 26.1016C48.7068 28.6021 46.4475 30.2155 42.9927 30.2155C41.5225 30.2013 40.104 29.9107 39.3363 29.5772L39.9315 26.9423C40.6961 27.2792 41.6559 27.7261 43.3086 27.7019C44.2552 27.6879 45.2674 27.3321 45.2769 26.5248C45.2817 25.9982 44.8521 25.6205 43.572 25.0311C42.3254 24.4553 40.671 23.4904 40.6928 21.7584ZM54.8813 18.0043H57.6872L60.3419 30.028H57.3006L56.9035 28.2316H52.6854L51.9996 30.028H48.5469L53.4812 18.8861C53.7173 18.3513 54.2493 18.0043 54.8813 18.0043ZM55.3632 21.2531L53.632 25.7676H56.3593L55.3632 21.2531ZM36.5098 18.0043H39.7971L37.0779 30.028H33.7897L36.5098 18.0043Z" fill="#1E26AF"/>
</svg>
